# Blender v2.92.0 OBJ File: 'origami fold fourth.blend'
# www.blender.org
mtllib origami fold fourth 1.mtl
o Top_Right_Plane.014
v 0.002241 0.000000 1.000877
v -0.997759 0.000000 0.000877
v -0.600467 0.791775 0.605660
v 0.002241 -0.500000 0.000877
v -0.841655 -0.499977 0.844678
vt 0.003104 0.545179
vt 0.006658 0.003104
vt 0.497017 0.545179
vt 0.398234 0.182964
vt 0.996896 0.003104
vt 0.996896 0.545191
vt 0.503225 0.541421
vt 0.604324 0.180394
vn 0.2522 0.5043 -0.8259
vn 0.8265 0.5035 -0.2517
vn -0.9238 0.2292 0.3067
vn -0.3063 0.2282 0.9242
usemtl None
s off
f 2/1/1 3/2/1 4/3/1
f 4/3/2 3/2/2 1/4/2
f 3/5/3 2/6/3 5/7/3
f 1/8/4 3/5/4 5/7/4
o Top_Left_Plane.015
v 1.002227 0.000000 0.000859
v 0.002227 0.000000 1.000859
v 0.607010 0.791775 0.603567
v 0.002227 -0.500000 0.000859
v 0.846028 -0.499977 0.844755
vt 0.003104 0.545179
vt 0.006658 0.003104
vt 0.497017 0.545179
vt 0.398234 0.182964
vt 0.996896 0.003104
vt 0.996896 0.545191
vt 0.503225 0.541421
vt 0.604324 0.180394
vn -0.8259 0.5043 -0.2522
vn -0.2517 0.5035 -0.8265
vn 0.3067 0.2292 0.9238
vn 0.9242 0.2282 0.3063
usemtl None
s off
f 7/9/5 8/10/5 9/11/5
f 9/11/6 8/10/6 6/12/6
f 8/13/7 7/14/7 10/15/7
f 6/16/8 8/13/8 10/15/8
o Bottom_Left_Plane.016
v 0.002259 0.000000 -0.999127
v 1.002259 0.000000 0.000873
v 0.604967 0.791775 -0.603910
v 0.002259 -0.500000 0.000873
v 0.846155 -0.499977 -0.842928
vt 0.003104 0.545179
vt 0.006658 0.003104
vt 0.497017 0.545179
vt 0.398234 0.182964
vt 0.996896 0.003104
vt 0.996896 0.545191
vt 0.503225 0.541421
vt 0.604324 0.180394
vn -0.2522 0.5043 0.8259
vn -0.8265 0.5035 0.2517
vn 0.9238 0.2292 -0.3067
vn 0.3063 0.2282 -0.9242
usemtl None
s off
f 12/17/9 13/18/9 14/19/9
f 14/19/10 13/18/10 11/20/10
f 13/21/11 12/22/11 15/23/11
f 11/24/12 13/21/12 15/23/12
o Bottom_Right_Plane.018
v -0.997737 0.000000 0.000881
v 0.002263 0.000000 -0.999119
v -0.602520 0.791775 -0.601827
v 0.002263 -0.500000 0.000881
v -0.841538 -0.499977 -0.843015
vt 0.003104 0.545179
vt 0.006658 0.003104
vt 0.497017 0.545179
vt 0.398234 0.182964
vt 0.996896 0.003104
vt 0.996896 0.545191
vt 0.503225 0.541421
vt 0.604324 0.180394
vn 0.8259 0.5043 0.2522
vn 0.2517 0.5035 0.8265
vn -0.3067 0.2292 -0.9238
vn -0.9242 0.2282 -0.3063
usemtl None
s off
f 17/25/13 18/26/13 19/27/13
f 19/27/14 18/26/14 16/28/14
f 18/29/15 17/30/15 20/31/15
f 16/32/16 18/29/16 20/31/16
