# Blender v2.92.0 OBJ File: 'origami fold fourth.blend'
# www.blender.org
mtllib origami fold fourth 2.mtl
o Top_Right_Plane.014
v 0.002241 0.000000 1.000877
v -0.997759 0.000000 0.000877
v -1.052380 -0.124417 1.066704
v 0.002241 -0.500000 0.000877
v -0.154756 -0.500496 0.157926
vt 0.003104 0.545179
vt 0.006658 0.003104
vt 0.497017 0.545179
vt 0.398234 0.182964
vt 0.996896 0.003104
vt 0.996896 0.545191
vt 0.503225 0.541421
vt 0.604324 0.180394
vn 0.4436 0.8873 0.1263
vn -0.1323 0.8866 -0.4433
vn -0.4890 -0.8632 -0.1258
vn 0.1322 -0.8629 0.4877
usemtl None
s off
f 2/1/1 3/2/1 4/3/1
f 4/3/2 3/2/2 1/4/2
f 3/5/3 2/6/3 5/7/3
f 1/8/4 3/5/4 5/7/4
o Top_Left_Plane.015
v 1.002227 0.000000 0.000859
v 0.002227 0.000000 1.000859
v 1.068054 -0.124417 1.055480
v 0.002227 -0.500000 0.000859
v 0.159276 -0.500496 0.157856
vt 0.003104 0.545179
vt 0.006658 0.003104
vt 0.497017 0.545179
vt 0.398234 0.182964
vt 0.996896 0.003104
vt 0.996896 0.545191
vt 0.503225 0.541421
vt 0.604324 0.180394
vn 0.1263 0.8873 -0.4436
vn -0.4433 0.8866 0.1323
vn -0.1258 -0.8632 0.4890
vn 0.4877 -0.8629 -0.1322
usemtl None
s off
f 7/9/5 8/10/5 9/11/5
f 9/11/6 8/10/6 6/12/6
f 8/13/7 7/14/7 10/15/7
f 6/16/8 8/13/8 10/15/8
o Bottom_Left_Plane.016
v 0.002259 0.000000 -0.999127
v 1.002259 0.000000 0.000873
v 1.056880 -0.124417 -1.064954
v 0.002259 -0.500000 0.000873
v 0.159256 -0.500496 -0.156176
vt 0.003104 0.545179
vt 0.006658 0.003104
vt 0.497017 0.545179
vt 0.398234 0.182964
vt 0.996896 0.003104
vt 0.996896 0.545191
vt 0.503225 0.541421
vt 0.604324 0.180394
vn -0.4436 0.8873 -0.1263
vn 0.1323 0.8866 0.4433
vn 0.4890 -0.8632 0.1258
vn -0.1322 -0.8629 -0.4877
usemtl None
s off
f 12/17/9 13/18/9 14/19/9
f 14/19/10 13/18/10 11/20/10
f 13/21/11 12/22/11 15/23/11
f 11/24/12 13/21/12 15/23/12
o Bottom_Right_Plane.018
v -0.997737 0.000000 0.000881
v 0.002263 0.000000 -0.999119
v -1.063564 -0.124417 -1.053740
v 0.002263 -0.500000 0.000881
v -0.154786 -0.500496 -0.156116
vt 0.003104 0.545179
vt 0.006658 0.003104
vt 0.497017 0.545179
vt 0.398234 0.182964
vt 0.996896 0.003104
vt 0.996896 0.545191
vt 0.503225 0.541421
vt 0.604324 0.180394
vn -0.1263 0.8873 0.4436
vn 0.4433 0.8866 -0.1323
vn 0.1258 -0.8632 -0.4890
vn -0.4877 -0.8629 0.1322
usemtl None
s off
f 17/25/13 18/26/13 19/27/13
f 19/27/14 18/26/14 16/28/14
f 18/29/15 17/30/15 20/31/15
f 16/32/16 18/29/16 20/31/16
